# xmcd
#
# Track frame offsets:
#	150
#	14828
#	29582
#	42063
#	53862
#	63419
#	74520
#	89012
#	104429
#	117488
#	128963
#
# Disc length: 1857 seconds
#
# Revision: 0
# Processed by: cddbd v1.5.1PL2 Copyright (c) Steve Scherf et al.
# Submitted via: audiograbber 1.82.02
#
DISCID=a7073f0b
DTITLE=Jim and Jesse - American Pride
DYEAR=2001
DGENRE=Bluegrass
TTITLE0=Big Hands
TTITLE1=Thank God For The USA
TTITLE2=God Bless America Again
TTITLE3=If We Forget God
TTITLE4=Under The Double Eagle
TTITLE5=When The Wagon Was New
TTITLE6=Log Cabin In The Lane
TTITLE7=Back In The USA
TTITLE8=Medley
TTITLE9=Matthew 24
TTITLE10=The Family Who Prays
EXTD=
EXTT0=
EXTT1=
EXTT2=
EXTT3=
EXTT4=
EXTT5=
EXTT6=
EXTT7=
EXTT8=
EXTT9=
EXTT10=
PLAYORDER=
